<?xml version="1.0" encoding="UTF-8"?>
<!DOCTYPE svg PUBLIC "-//W3C//DTD SVG 1.1//EN" "http://www.w3.org/Graphics/SVG/1.1/DTD/svg11.dtd">
<!-- Creator: CorelDRAW 2019 (64-Bit) -->
<svg xmlns="http://www.w3.org/2000/svg" xml:space="preserve" width="27.5752mm" height="27.575mm" version="1.1" style="shape-rendering:geometricPrecision; text-rendering:geometricPrecision; image-rendering:optimizeQuality; fill-rule:evenodd; clip-rule:evenodd"
viewBox="0 0 1863.05 1863.03"
 xmlns:xlink="http://www.w3.org/1999/xlink"
 xmlns:xodm="http://www.corel.com/coreldraw/odm/2003">
 <defs>
  <style type="text/css">
   <![CDATA[
    .fil2 {fill:black}
    .fil0 {fill:#8ABFF1;fill-rule:nonzero}
    .fil1 {fill:#F6C956;fill-rule:nonzero}
   ]]>
  </style>
 </defs>
 <g id="Слой_x0020_1">
  <metadata id="CorelCorpID_0Corel-Layer"/>
  <polygon class="fil0" points="1450.14,1716.74 1492.18,1716.74 1531.21,1664.33 1508.26,1425.09 1434.07,1425.09 1411.11,1664.33 "/>
  <polygon class="fil1" points="957.68,1729.82 905.38,1729.82 856.81,1618.44 885.37,1320.75 977.7,1320.75 1006.27,1618.44 "/>
  <polygon class="fil0" points="1675.67,1425.09 1786.81,1425.09 1852.14,1490.42 1852.14,1852.14 1741,1852.14 1741,1490.42 "/>
  <path class="fil0" d="M1017.81 1196.76l0 -165.35c0,-89.76 -59.88,-165.51 -141.86,-189.52 17.63,-5.16 36.28,-7.93 55.57,-7.93 109.05,0 197.44,88.41 197.44,197.45l0 165.35c-48.42,48.42 -75.58,75.57 -123.98,123.99l-111.14 0c48.41,-48.42 75.56,-75.57 123.98,-123.99z"/>
  <path class="fil0" d="M365.3 1325.44l0 -132.89c0,-68.08 -42.88,-126.14 -103.09,-148.67 17.29,-6.47 36,-10 55.57,-10 87.62,0 158.66,71.04 158.66,158.67l0 132.89c-38.91,38.92 -60.73,60.74 -99.63,99.65l-111.14 0c38.91,-38.92 60.72,-60.74 99.63,-99.65z"/>
  <path class="fil0" d="M1592.8 1325.44l0 -132.89c0,-68.08 -42.88,-126.14 -103.11,-148.67 17.3,-6.47 36.02,-10 55.58,-10 87.64,0 158.68,71.04 158.68,158.67l0 132.89c-38.91,38.92 -60.73,60.74 -99.65,99.65l-111.13 0c38.91,-38.92 60.72,-60.74 99.63,-99.65z"/>
  <path class="fil0" d="M1120.93 1320.75l111.14 0c31.75,31.74 49.55,49.56 81.28,81.29l0 450.09 -111.14 0 0 -450.09c-31.73,-31.75 -49.54,-49.55 -81.28,-81.29z"/>
  <path class="fil1" d="M1163.17 337.9c-51.3,-29.7 -106.82,-52.93 -165.43,-68.58l-42.75 -258.42 111.14 0 42.75 258.42c34.66,9.26 68.23,21.17 100.49,35.5l-46.21 33.09z"/>
  <path class="fil1" d="M477.61 337.9l-148.25 -106.17 46.37 -46.37 166.82 119.45c-22.3,9.9 -43.96,20.95 -64.93,33.09z"/>
  <path class="fil1" d="M1741.01 1066.12l0 -269.21 -258.42 -42.75c-15.66,-58.61 -38.89,-114.13 -68.58,-165.43l152.55 -213.02 -144 -143.98 64.77 -46.38 190.36 190.36 -152.55 213.02c29.7,51.3 52.93,106.82 68.58,165.43l258.42 42.75 0 269.21 -180.91 29.93c-4.34,-5.65 -9.07,-11.03 -14.12,-16.05l83.89 -13.88z"/>
  <g id="_649006290464">
   <g>
    <path class="fil2" d="M642.4 1081.83l18.81 -11.07c-22.14,-42.96 -33.69,-90.77 -33.69,-139.23 0,-167.64 136.37,-304.02 304,-304.02 167.65,0 304.02,136.37 304.02,304.02 0,48.46 -11.56,96.29 -33.71,139.25l18.81 11.07c24.1,-46.31 36.68,-97.97 36.68,-150.32 0,-179.66 -146.14,-325.8 -325.8,-325.8 -179.64,0 -325.77,146.16 -325.77,325.8 0,52.34 12.57,103.99 36.65,150.3z"/>
   </g>
   <g>
    <path class="fil2" d="M1099.29 278.07c66.77,18.49 114.63,38.25 175.61,72.81l211.25 -151.28 177.29 177.3 -151.27 211.25c34.19,60.33 54.08,108.04 72.81,175.61l256.28 42.41 0 250.71 -75.8 12.55 3.56 21.49 94.03 -15.56 0 -287.69 -260.55 -43.1 -2.99 -10.16c-13.88,-47.1 -32.79,-92.68 -56.3,-135.79l-5.07 -9.3 153.79 -214.77 -203.43 -203.42 -214.77 153.79 -9.3 -5.07c-43.11,-23.5 -88.69,-42.4 -135.79,-56.29l-10.16 -2.99 -43.1 -260.55 -287.69 0 -43.1 260.55 -10.16 2.99c-47.1,13.88 -92.67,32.79 -135.78,56.3l-9.3 5.07 -214.79 -153.81 -203.43 203.42 153.81 214.79 -5.08 9.31c-23.53,43.1 -42.42,88.67 -56.29,135.77l-2.99 10.16 -260.55 43.1 0 287.69 94.03 15.56 3.56 -21.49 -75.81 -12.55 0 -250.71 256.28 -42.41c18.71,-67.57 38.61,-115.28 72.8,-175.61l-151.27 -211.25 177.29 -177.3 211.25 151.28c60.98,-34.56 108.84,-54.31 175.61,-72.81l42.42 -256.28 250.72 0 42.41 256.28z"/>
   </g>
   <g>
    <path class="fil2" d="M1375.71 1329.97l84.22 84.23 -55.59 0 0 21.78 91.83 0 -22.21 231.48 44.8 60.18 52.98 0 44.8 -60.18 -22.2 -231.48 187.97 0 58.93 58.95 0 346.31 -132.01 0 0 -224.54 -21.8 0 0 224.54 -284.34 0 0 -224.54 -21.8 0 0 246.33 481.73 0 0 -377.12 -71.71 -71.71 -160.72 0 84.24 -84.24 0 -137.42c0,-93.49 -76.1,-169.55 -169.58,-169.55 -93.49,0 -169.55,76.07 -169.55,169.55l0 137.43zm120.73 331.2l21.61 -225.2 54.41 0 21.6 225.2 -33.25 44.67 -31.11 0 -33.27 -44.67zm-98.95 -340.23l0 -128.4c0,-81.49 66.28,-147.78 147.77,-147.78 81.49,0 147.79,66.29 147.79,147.78l0 128.4 -93.27 93.25 -109.04 0 -93.25 -93.25z"/>
   </g>
   <g>
    <path class="fil2" d="M71.72 1414.2l-71.71 71.71 0 377.12 481.73 0 0 -246.33 -21.79 0 0 224.54 -284.34 0 0 -224.54 -21.8 0 0 224.54 -132.02 0 0 -346.31 58.93 -58.96 187.94 0 -22.2 231.49 44.81 60.18 52.98 0 44.81 -60.18 -22.21 -231.49 91.82 0 0 -21.78 -55.57 0 84.22 -84.23 0 -137.42c0,-93.49 -76.08,-169.57 -169.56,-169.57 -93.5,0 -169.57,76.08 -169.57,169.57l0 137.42 84.23 84.24 -160.71 0.01zm393.83 -221.66l0 128.39 -93.25 93.27 -109.05 0 -93.26 -93.27 0 -128.39c0,-81.49 66.3,-147.77 147.79,-147.77 81.49,0 147.77,66.28 147.77,147.77zm-196.59 468.63l21.61 -225.21 54.42 0 21.61 225.2 -33.27 44.67 -31.09 0 -33.28 -44.67z"/>
   </g>
   <g>
    <path class="fil2" d="M626.46 1309.85l-87.68 87.68 0 465.51 785.46 0 0 -465.51 -87.67 -87.67 -205.3 0 108.59 -108.59 0 -169.86c0,-114.86 -93.47,-208.35 -208.34,-208.35 -114.87,0 -208.33,93.49 -208.33,208.35l0 169.87 108.57 108.58 -205.3 0zm117.17 21.8l129.75 0 -23.4 243.86 -106.36 -243.86zm251.52 285.02l-44.59 102.26 -38.04 0 -44.59 -102.26 27.34 -285.02 72.54 0 27.34 285.02zm122.92 -585.26l0.01 160.84 -117.6 117.61 -137.89 0 -117.61 -117.6 0 -160.85c0,-102.87 83.67,-186.55 186.54,-186.55 102.88,0 186.55,83.68 186.55,186.55zm-128.38 300.24l129.75 0 -106.36 243.87 -23.39 -243.87zm-91.45 409.06l66.58 0 178.37 -409.06 84.35 0 74.93 74.89 0 434.7 -146.55 0 0 -286.19 -21.79 0 0 286.19 -405.24 0 0 -286.19 -21.79 0 0 286.19 -146.54 0 0.01 -434.7 74.91 -74.89 84.37 0 178.39 409.06z"/>
   </g>
  </g>
 </g>
</svg>
