<svg width="95" height="114" viewBox="0 0 95 114" fill="none" xmlns="http://www.w3.org/2000/svg">
<path d="M26.9 70H25V70.1V96.5C25 98.4 23.4 100 21.5 100H14V104H27.5C29.4 104 31 102.4 31 100.5V74.1C31 71.8 29.2 70 26.9 70Z" fill="#85BFF4"/>
<path d="M71 1V28.3C71 42.6 59.3 54.3 45 54.3C43 54.3 41.1 54.1 39.2 53.6C43.4 56.5 48.5 58.3 54 58.3C68.3 58.3 80 46.6 80 32.3V1H71Z" fill="#FBCF54"/>
<path d="M27.9 106H13V82H15V104H27.9C29 104 30 103.1 30 101.9V73.1C30 72 29.1 71 27.9 71H0V69H27.9C30.1 69 32 70.8 32 73.1V102C32 104.2 30.2 106 27.9 106Z" fill="black"/>
<path d="M72 104H54C53.9 104 53.8 104 53.8 104L40.9 101H31V99H41C41.1 99 41.2 99 41.2 99L54.1 102H71.8C73 101.6 73.9 100.4 73.9 99C73.9 98.2 73.5 97.3 72.9 96.8C72.6 96.5 72.5 96.1 72.6 95.7C72.7 95.3 73.1 95.1 73.5 95.1H73.7C75.3 95.1 76.7 93.9 76.9 92.4C77 91.5 76.7 90.7 76.1 90.1C75.5 89.5 74.7 89.1 73.9 89.1C73.3 89.1 72.9 88.7 72.9 88.1C72.9 87.5 73.3 87.1 73.9 87.1H75.7C77.3 87.1 78.7 85.9 78.9 84.4C79 83.5 78.7 82.7 78.1 82.1C77.5 81.5 76.7 81.1 75.9 81.1H73.9C73.3 81.1 72.9 80.7 72.9 80.1C72.9 79.5 73.3 79.1 73.9 79.1C74.7 79.1 75.6 78.7 76.1 78.1C76.7 77.5 76.9 76.6 76.9 75.8C76.7 74.3 75.4 73.1 73.7 73.1H50C49.4 73.1 49 72.7 49 72.1V65.2C47 65.5 45.2 66.5 43.8 68L36.7 75.8C36.6 75.9 36.3 76 36 76H31.5V74H35.6L42.4 66.5C44.3 64.4 47.1 63.1 49.9 63C50 63 50 63 50.1 63H50.5C51.1 63 51.5 63.4 51.5 64C51.5 64.3 51.4 64.6 51.1 64.8V71H73.9C76.5 71 78.8 73 79.1 75.5C79.2 76.9 78.8 78.3 77.9 79.3C78.6 79.6 79.3 80 79.9 80.6C80.8 81.6 81.3 83.1 81.2 84.5C81 86.4 79.7 88 77.9 88.6C78.8 89.6 79.3 91.1 79.2 92.5C79 94.5 77.6 96.1 75.7 96.7C76.1 97.4 76.3 98.2 76.3 99C76.3 101.3 74.7 103.4 72.6 104C72.2 104 72.1 104 72 104Z" fill="black"/>
<path d="M22.5 100C21.1 100 20 98.9 20 97.5C20 96.1 21.1 95 22.5 95C23.9 95 25 96.1 25 97.5C25 98.9 23.9 100 22.5 100Z" fill="black"/>
<path d="M54 59.3C39.1 59.3 27 47.2 27 32.3V0H81V32.3C81 47.2 68.9 59.3 54 59.3ZM29 2V32.3C29 46.1 40.2 57.3 54 57.3C67.8 57.3 79 46.1 79 32.3V2H29Z" fill="black"/>
<path d="M31 46.3C28.9 46.3 28.1 45.9 26.8 45.4C26.5 45.3 26.1 45.1 25.6 44.9C18.1 42 13 34.7 13 26.7V14H25V16H15V26.7C15 33.8 19.6 40.4 26.4 43C26.9 43.2 27.3 43.4 27.7 43.5C28.8 44 29.4 44.2 31.1 44.2V46.3H31Z" fill="black"/>
<path d="M77 46.3V44.3C78.7 44.3 79.2 44.1 80.4 43.6C80.8 43.4 81.2 43.3 81.7 43.1C88.4 40.4 93 33.8 93 26.7V16H83V14H95V26.7C95 34.6 89.9 41.9 82.4 44.9C81.9 45.1 81.5 45.3 81.2 45.4C79.9 46 79.1 46.3 77 46.3Z" fill="black"/>
<path d="M51.5 58.8H49.5V73.1H51.5V58.8Z" fill="black"/>
<path d="M59.5 58.8H57.5V73.1H59.5V58.8Z" fill="black"/>
<path d="M51.5 102.8H49.5V107.1H51.5V102.8Z" fill="black"/>
<path d="M59.5 102.8H57.5V107.1H59.5V102.8Z" fill="black"/>
<path d="M63.5 73H54.5V71H63.5C65.4 71 67 69.4 67 67.5C67 65.6 65.4 64 63.5 64H59V62H63.5C66.5 62 69 64.5 69 67.5C69 70.5 66.5 73 63.5 73Z" fill="black"/>
<path d="M54 20.4L56.5 25.5L62.1 26.4L58.1 30.3L59 35.9L54 33.3L49 35.9L49.9 30.3L45.9 26.4L51.5 25.5L54 20.4Z" fill="#FBCF54"/>
<path d="M60.4 37.7L54 34.4L47.6 37.7L48.8 30.6L43.7 25.6L50.8 24.6L54 18.2L57.2 24.6L64.3 25.6L59.2 30.6L60.4 37.7ZM54 32.1L57.7 34L57 30L60 27.1L55.9 26.5L54 22.7L52.2 26.4L48 27.1L51 30L50.3 34.1L54 32.1Z" fill="black"/>
<path d="M78 114H32V113C32 108.6 35.6 105 40 105H70C74.4 105 78 108.6 78 113V114ZM34.1 112H75.9C75.4 109.2 73 107 70 107H40C37 107 34.6 109.2 34.1 112Z" fill="black"/>
<path d="M14 102H0V104H14V102Z" fill="black"/>
</svg>
