<?xml version="1.0" encoding="UTF-8"?>
<!DOCTYPE svg PUBLIC "-//W3C//DTD SVG 1.1//EN" "http://www.w3.org/Graphics/SVG/1.1/DTD/svg11.dtd">
<!-- Creator: CorelDRAW 2019 (64-Bit) -->
<svg xmlns="http://www.w3.org/2000/svg" xml:space="preserve" width="27.3332mm" height="28.075mm" version="1.1" style="shape-rendering:geometricPrecision; text-rendering:geometricPrecision; image-rendering:optimizeQuality; fill-rule:evenodd; clip-rule:evenodd"
viewBox="0 0 1223.23 1256.43"
 xmlns:xlink="http://www.w3.org/1999/xlink"
 xmlns:xodm="http://www.corel.com/coreldraw/odm/2003">
 <defs>
  <style type="text/css">
   <![CDATA[
    .fil0 {fill:#8ABFF1}
    .fil1 {fill:#F6C956}
    .fil2 {fill:black}
   ]]>
  </style>
 </defs>
 <g id="Слой_x0020_1">
  <metadata id="CorelCorpID_0Corel-Layer"/>
  <path class="fil0" d="M1122.38 1236.41l43.06 -74.55 50.33 -87.16 -72.78 0 -50.27 87.16 -13.95 24.14 29.02 50.41c4.67,8 10.06,7.8 14.58,0zm-31 -990.08l72.79 0c28.38,0 51.6,23.22 51.6,51.6l0 133.47 -72.78 0 0 -133.47c0,-28.38 -23.22,-51.6 -51.61,-51.6z"/>
  <polygon class="fil1" points="1014.48,1074.7 1215.77,1074.7 1215.77,419.23 1014.48,419.23 "/>
  <polygon class="fil0" points="1142.99,1074.7 1215.77,1074.7 1215.77,419.23 1142.99,419.23 "/>
  <path class="fil2" d="M701.42 122.58c-3.08,-13.44 -9.95,-25.76 -19.72,-35.5 -13.74,-13.71 -32.21,-21.45 -51.64,-21.45l-48.95 0 -2.17 -8.39c-4.42,-17.08 -12.55,-30.7 -26.52,-41.65 -12.82,-10.06 -28.54,-15.59 -44.86,-15.59l-159.31 0c-16.34,0 -32.01,5.52 -44.89,15.55 -13.44,10.47 -22.52,24.9 -26.43,41.46l-2.04 8.61 -49.12 0c-19.46,0 -37.95,7.72 -51.72,21.45 -9.75,9.72 -16.57,22.09 -19.66,35.51l-1.99 8.68 -64.56 0c-23.38,0 -45.51,9.25 -62.05,25.76 -16.53,16.49 -25.82,38.66 -25.82,62.03l0 816.19c0,4.18 3.43,7.51 7.59,7.51 4.16,0 7.49,-3.35 7.49,-7.51l0 -816.19c0,-19.36 7.75,-37.71 21.41,-51.38 13.67,-13.67 32.01,-21.48 51.38,-21.48l64.56 0 1.99 8.69c3.08,13.46 9.9,25.75 19.66,35.51 13.77,13.76 32.23,21.51 51.71,21.51l159.72 0c4.18,0 7.51,-3.43 7.51,-7.59 0,-4.16 -3.35,-7.5 -7.51,-7.5l-159.72 0c-15.46,0 -30.11,-6.18 -41.04,-17.07 -10.91,-10.87 -17.02,-25.6 -17.02,-41 0,-15.45 6.09,-30.13 17,-41.04 10.92,-10.92 25.6,-17.01 41.06,-17.01l42.33 0c19.11,0 19.02,-2.11 23.18,-19.33 3.12,-12.91 10.83,-25.91 21.35,-34.09 10.23,-7.96 22.65,-12.2 35.62,-12.2l159.31 0c12.96,0 25.47,4.31 35.69,12.28 10.24,7.99 17.55,19.21 20.68,31.82 1.3,5.23 3.21,10.34 6.87,14.41 4.59,5.09 10.05,7.13 16.9,7.13l42.34 0c15.43,0 30.1,6.1 40.98,17.03 10.89,10.93 17.06,25.57 17.06,41.02 0,15.4 -6.21,30.09 -17.08,40.97 -10.89,10.91 -25.53,17.09 -40.97,17.09l-159.74 0c-4.16,0 -7.51,3.34 -7.51,7.5 0,4.15 3.33,7.59 7.51,7.59l159.74 0c19.46,0 37.89,-7.76 51.63,-21.51 9.77,-9.77 16.64,-22.03 19.73,-35.51l1.99 -8.69 64.57 0c19.34,0 37.7,7.84 51.36,21.47 13.69,13.65 21.34,32.04 21.34,51.38l0 48.51c0,4.16 3.42,7.57 7.58,7.57 4.15,0 7.57,-3.41 7.57,-7.57l0 -48.51c0,-23.35 -9.33,-45.54 -25.82,-62.04 -16.49,-16.5 -38.71,-25.75 -62.04,-25.75l-64.57 0 -1.99 -8.69zm-439.36 979.98l-49.05 -49.05 49.12 -49.05c2.93,-2.93 2.92,-7.73 -0.01,-10.66 -2.98,-2.98 -7.68,-2.97 -10.66,0l-49.12 49.04 -49.04 -49.04c-3,-3 -7.73,-2.99 -10.73,0 -2.92,2.92 -2.93,7.73 -0,10.65l49.14 49.04 -49.13 49.13c-2.91,2.91 -2.95,7.72 -0.02,10.63 2.98,2.96 7.77,2.99 10.75,0.02l49.04 -49.04 48.98 48.96c1.45,1.45 3.4,2.31 5.46,2.31 4.18,0 7.51,-3.41 7.51,-7.57 0,-2.06 -0.78,-3.94 -2.24,-5.4zm140.03 -80.2l335.45 0c4.19,0 7.57,-3.3 7.57,-7.51 0,-4.2 -3.37,-7.57 -7.57,-7.57l-335.45 0c-4.17,0 -7.59,3.4 -7.59,7.57 0,4.18 3.43,7.51 7.59,7.51zm0 77.45l245.17 0c4.18,0 7.51,-3.41 7.51,-7.57 0,-4.17 -3.34,-7.5 -7.51,-7.5l-245.17 0c-4.15,0 -7.59,3.33 -7.59,7.5 0,4.17 3.42,7.57 7.59,7.57zm0 -296.93l335.45 0c4.19,0 7.57,-3.3 7.57,-7.51 0,-4.2 -3.37,-7.57 -7.57,-7.57l-335.45 0c-4.17,0 -7.59,3.41 -7.59,7.57 0,4.17 3.44,7.51 7.59,7.51zm0 77.45l245.17 0c4.17,0 7.51,-3.42 7.51,-7.57 0,-4.17 -3.34,-7.51 -7.51,-7.51l-245.17 0c-4.15,0 -7.59,3.33 -7.59,7.51 0,4.16 3.43,7.57 7.59,7.57zm0 -296.93l335.45 0c4.19,0 7.57,-3.3 7.57,-7.51 0,-4.2 -3.37,-7.57 -7.57,-7.57l-335.45 0c-4.17,0 -7.59,3.41 -7.59,7.57 0,4.18 3.43,7.51 7.59,7.51zm0 77.45l245.17 0c4.17,0 7.51,-3.42 7.51,-7.57 0,-4.17 -3.34,-7.51 -7.51,-7.51l-245.17 0c-4.15,0 -7.59,3.33 -7.59,7.51 0,4.16 3.43,7.57 7.59,7.57zm0 -296.94l335.45 0c4.19,0 7.57,-3.29 7.57,-7.5 0,-4.2 -3.37,-7.59 -7.57,-7.59l-335.45 0c-4.17,0 -7.59,3.41 -7.59,7.59 0,4.17 3.44,7.5 7.59,7.5zm0 77.45l245.17 0c4.21,0 7.51,-3.38 7.51,-7.57 0,-4.17 -3.34,-7.51 -7.51,-7.51l-245.17 0c-4.15,0 -7.59,3.33 -7.59,7.51 0,4.2 3.39,7.57 7.59,7.57zm-123.65 335.3l-98.82 98.82 -53.3 -53.3c-2.97,-2.97 -7.78,-2.94 -10.74,0.02 -2.93,2.91 -2.9,7.73 0.02,10.64l58.63 58.62c2.96,2.96 7.76,2.97 10.72,0l104.15 -104.15c2.91,-2.9 2.94,-7.72 0.02,-10.63 -2.95,-2.94 -7.72,-2.98 -10.68,-0.02zm0 -219.48l-98.82 98.81 -53.3 -53.3c-2.97,-2.97 -7.77,-2.94 -10.74,0.02 -2.93,2.91 -2.9,7.73 0.02,10.65l58.63 58.62c2.99,2.99 7.73,3 10.72,0l104.15 -104.15c2.91,-2.9 2.94,-7.72 0.02,-10.63 -2.96,-2.95 -7.72,-2.98 -10.68,-0.02zm0 -219.5l-98.82 98.83 -53.3 -53.3c-2.97,-2.97 -7.77,-2.94 -10.74,0.02 -2.93,2.91 -2.9,7.73 0.02,10.64l58.63 58.62c2.99,2.99 7.73,3 10.72,0l104.15 -104.15c2.92,-2.91 2.95,-7.73 0.02,-10.64 -2.95,-2.94 -7.73,-2.97 -10.68,-0.02zm829.03 729.34l-85.54 0 0 -277.75c0,-4.21 -3.38,-7.51 -7.57,-7.51 -4.16,0 -7.51,3.34 -7.51,7.51l0 285.33c0,2.43 1.05,3.56 2.12,5.51l99.62 172.47c2.9,5.03 10.16,4.95 13.04,-0.14l99.62 -172.61c1.19,-2.07 1.97,-2.89 1.97,-5.23l0 -776.76c0,-15.73 -6.29,-30.69 -17.4,-41.79 -11.13,-11.13 -26.04,-17.32 -41.78,-17.32l-98.06 0c-15.71,0 -30.69,6.18 -41.79,17.31 -11.08,11.11 -17.34,26.1 -17.34,41.8 0,135.54 0,271.07 0,406.61 0,4.15 3.35,7.51 7.51,7.51 4.18,0 7.57,-3.31 7.57,-7.51l0 -277.76 85.54 0 0 640.32zm15.15 -640.32l85.54 0 0 640.32 -85.54 0 0 -640.32zm-95.29 655.42l175.42 0 -87.71 151.85 -87.72 -151.85zm136.71 -828.3c11.7,0 22.84,4.63 31.12,12.89 8.28,8.27 12.99,19.4 12.99,31.14l0 113.77 -186.22 0 0 -113.77c0,-11.73 4.71,-22.86 12.99,-31.13 8.25,-8.25 19.38,-12.9 31.06,-12.9l98.06 0zm-323.35 98.61l0 816.13c0,19.32 -7.66,37.75 -21.34,51.39 -13.69,13.65 -32.01,21.39 -51.38,21.39l-680.12 0c-19.36,0 -37.68,-7.75 -51.36,-21.39 -13.68,-13.64 -21.42,-32.06 -21.42,-51.39l0 -48.5c0,-4.16 -3.33,-7.51 -7.49,-7.51 -4.15,0 -7.59,3.33 -7.59,7.51l0 48.5c0,23.4 9.3,45.59 25.83,62.11 16.5,16.5 38.7,25.75 62.04,25.75l680.12 0c23.36,0 45.53,-9.23 62.04,-25.74 16.51,-16.52 25.82,-38.75 25.82,-62.12l0 -816.13c0,-4.19 -3.38,-7.57 -7.57,-7.57 -4.19,0 -7.57,3.37 -7.57,7.57z"/>
 </g>
</svg>
