<svg width="49" height="53" viewBox="0 0 49 53" fill="none" xmlns="http://www.w3.org/2000/svg">
<g clip-path="url(#clip0)">
<path d="M40.2 44.3H17.2C12.7 44.3 9.1 40.6 9.1 36.2V8.2C9 3.7 12.7 0 17.1 0H40.1C44.6 0 48.2 3.7 48.2 8.1V36.1C48.3 40.7 44.7 44.3 40.2 44.3ZM17.1 2C13.8 2 11 4.8 11 8.1V36.1C11 39.5 13.8 42.2 17.1 42.2H40.1C43.5 42.2 46.2 39.4 46.2 36.1V8.1C46.2 4.7 43.4 2 40.1 2H17.1Z" fill="black"/>
<path d="M31.2 52.3H8.2C3.7 52.3 0.100003 48.6 0.100003 44.2V16.2C3.26335e-06 11.7 3.7 8 8.1 8H10V10H8.1C4.8 10 2 12.8 2 16.1V44.1C2 47.5 4.8 50.2 8.1 50.2H31.1C34.5 50.2 37.2 47.4 37.2 44.1V43.2H39.2V44.1C39.3 48.7 35.7 52.3 31.2 52.3Z" fill="black"/>
<path d="M30.9 8.80005H16.4V10.8H30.9V8.80005Z" fill="black"/>
<path d="M41.3 16.8H16.1V18.8H41.3V16.8Z" fill="black"/>
<path d="M41.3 22.5H16.1V24.5H41.3V22.5Z" fill="black"/>
<path d="M41.3 28.1001H16.1V30.1001H41.3V28.1001Z" fill="black"/>
<path d="M41.3 33.8H16.1V35.8H41.3V33.8Z" fill="black"/>
</g>
<defs>
<clipPath id="clip0">
<rect width="48.3" height="52.3" fill="white"/>
</clipPath>
</defs>
</svg>
