<svg width="86" height="120" viewBox="0 0 86 120" fill="none" xmlns="http://www.w3.org/2000/svg">
<g clip-path="url(#clip0)">
<path d="M74.1 13.2C73.5 13.5 72.8999 13.7 72.1999 13.7C69.8999 13.7 68.0999 11.9 68.0999 9.60001C68.0999 9.40001 68.0999 9.20001 68.1999 9.00001L67.5 8.50001C67.2999 8.30001 66.9999 8.20001 66.6999 8.20001H13.7C13.7 8.40001 13.7 8.50001 13.7 8.70001C13.7 10.8 11.8 12.7 9.09995 13.7C8.59995 13.9 8.19995 14.4 8.19995 15C8.19995 15.8 8.79995 16.4 9.59995 16.4H65.6999C66.4999 16.4 67.0999 17 67.0999 17.8V65.8C67.0999 66.6 67.7 67.2 68.5 67.2H73.1C73.9 67.2 74.5 66.6 74.5 65.8V16.4V14.2C74.5 13.8 74.4 13.5 74.1 13.2Z" fill="#85BFF4"/>
<path d="M47 109.1H4.9C2.2 109.1 0 106.9 0 104.2V4.9C0 2.2 2.2 0 4.9 0H77C79.7 0 81.9 2.2 81.9 4.9V73.5H79.9V4.9C79.9 3.3 78.6 2 77 2H4.9C3.3 2 2 3.3 2 4.9V104.3C2 105.9 3.3 107.2 4.9 107.2H47V109.1Z" fill="black"/>
<path d="M47 101.8H12.8L12.7 100.9C12.5 98.5 10.6 96.6 8.20005 96.4L7.30005 96.3V12.8L8.20005 12.7C10.6 12.5 12.5 10.6 12.7 8.19999L12.8 7.29999H69.2L69.3001 8.19999C69.5001 10.6 71.4 12.5 73.8 12.7L74.7 12.8V73.7H72.7V14.5C70 13.9 68 11.9 67.4001 9.19999H14.5C13.9 11.9 11.9 13.9 9.20005 14.5V94.5C11.8 95.1 13.9 97.2 14.5 99.8H47V101.8Z" fill="black"/>
<path d="M66.3 110.3C64.6 110.3 63.2 109.3 62.7 107.6C62.5 107 62.1 106.6 61.6 106.4C61.1 106.2 60.5 106.3 60 106.7C58.7 107.7 56.9 107.8 55.5 106.8C54.1 105.8 53.6 104.1 54.2 102.5C54.4 102 54.3 101.4 54 100.9C53.7 100.4 53.1 100.2 52.6 100.2C50.9 100.2 49.5 99.2 49 97.6C48.5 96 49 94.3 50.4 93.4C50.9 93.1 51.2 92.6 51.2 92C51.2 91.4 50.9 90.9 50.4 90.6C49 89.6 48.4 88 49 86.4C49.6 84.8 51 83.8 52.6 83.8C53.2 83.8 53.7 83.6 54 83.1C54.3 82.6 54.4 82.1 54.2 81.5C53.6 79.9 54.2 78.2 55.5 77.2C56.9 76.2 58.6 76.2 60 77.3C60.5 77.7 61 77.8 61.6 77.6C62.2 77.4 62.6 77 62.7 76.4C63.2 74.8 64.6 73.7 66.3 73.7C68 73.7 69.4 74.7 69.9 76.4C70.1 77 70.5 77.4 71 77.6C71.6 77.8 72.1 77.7 72.6 77.3C73.9 76.3 75.7 76.2 77.1 77.2C78.5 78.2 79 79.9 78.4 81.5C78.2 82 78.3 82.6 78.6 83.1C78.9 83.6 79.5 83.8 80 83.8C81.7 83.8 83.1 84.8 83.6 86.4C84.1 88 83.6 89.7 82.2 90.6C81.7 90.9 81.4 91.4 81.4 92C81.4 92.6 81.7 93.1 82.2 93.4C83.6 94.4 84.2 96 83.6 97.6C83.1 99.2 81.6 100.2 80 100.2C79.4 100.2 78.9 100.4 78.6 100.9C78.3 101.4 78.2 101.9 78.4 102.5C79 104.1 78.4 105.8 77.1 106.8C75.7 107.8 74 107.8 72.6 106.7C72.1 106.3 71.6 106.2 71 106.4C70.5 106.6 70 107 69.9 107.6C69.4 109.3 68 110.3 66.3 110.3ZM61.1 104.4C61.5 104.4 61.9 104.5 62.3 104.6C63.5 105 64.4 105.9 64.7 107.1C65 108 65.7 108.3 66.4 108.3C67 108.3 67.8 108 68.1 107.1C68.4 105.9 69.4 105 70.5 104.6C71.7 104.2 73 104.4 73.9 105.2C74.7 105.8 75.5 105.6 76 105.2C76.5 104.8 76.9 104.1 76.6 103.2C76.2 102 76.4 100.8 77.1 99.8C77.8 98.8 79 98.2 80.2 98.3C81.1 98.3 81.7 97.7 81.9 97.1C82.1 96.5 82 95.7 81.2 95.1C80.2 94.4 79.6 93.3 79.6 92C79.6 90.8 80.2 89.6 81.2 88.9C82 88.4 82.1 87.5 81.9 86.9C81.7 86.3 81.1 85.7 80.2 85.7C79 85.7 77.8 85.2 77.1 84.2C76.4 83.2 76.2 81.9 76.6 80.8C76.9 79.9 76.5 79.2 76 78.8C75.5 78.4 74.7 78.2 73.9 78.8C72.9 79.5 71.6 79.8 70.5 79.4C69.3 79 68.4 78.1 68.1 76.9C67.8 76 67.1 75.7 66.4 75.7C65.8 75.7 65 76 64.7 76.9C64.4 78.1 63.4 79 62.3 79.4C61.1 79.8 59.8 79.6 58.9 78.8C58.1 78.2 57.3 78.4 56.8 78.8C56.3 79.2 55.9 79.9 56.2 80.8C56.6 82 56.4 83.2 55.7 84.2C55 85.2 53.8 85.8 52.6 85.7C51.6 85.7 51.1 86.3 50.9 86.9C50.7 87.5 50.8 88.3 51.6 88.9C52.6 89.6 53.2 90.7 53.2 92C53.2 93.2 52.6 94.4 51.6 95.1C50.8 95.6 50.7 96.5 50.9 97.1C51.1 97.7 51.6 98.3 52.6 98.3C53.8 98.3 55 98.8 55.7 99.8C56.4 100.8 56.6 102.1 56.2 103.2C55.9 104.1 56.3 104.8 56.8 105.2C57.3 105.6 58.1 105.8 58.9 105.2C59.5 104.7 60.3 104.4 61.1 104.4Z" fill="black"/>
<path d="M66.6 101.6C72.0124 101.6 76.4001 97.2124 76.4001 91.8C76.4001 86.3876 72.0124 82 66.6 82C61.1877 82 56.8 86.3876 56.8 91.8C56.8 97.2124 61.1877 101.6 66.6 101.6Z" fill="#FBCF54"/>
<path d="M66.6 102.5C60.7 102.5 55.8 97.7 55.8 91.7C55.8 85.7 60.6 81 66.6 81C72.6 81 77.4001 85.8 77.4001 91.8C77.4001 97.8 72.5 102.5 66.6 102.5ZM66.6 83C61.8 83 57.8 86.9 57.8 91.8C57.8 96.7 61.7 100.6 66.6 100.6C71.5 100.6 75.4001 96.7 75.4001 91.8C75.4001 86.9 71.4 83 66.6 83Z" fill="black"/>
<path d="M55.6 119.9C55.1 119.9 54.7 119.7 54.4 119.3L52 116.1L48.1 115.4C47.6 115.3 47.2 115 47 114.5C46.7 113.9 46.8 113.1 47.2 112.4L54.2 101L55.9 102L48.9 113.4L53.1 114.1L55.7 117.5L62.7 106.1L64.4 107.1L57.4 118.5C57 119.4 56.4 119.8 55.6 119.9C55.7 119.9 55.7 119.9 55.6 119.9Z" fill="black"/>
<path d="M76.7 119.9C76 119.9 75.3 119.4 74.9 118.8L67.9 107.4L69.6 106.4L76.6 117.8L79.2 114.4L83.4 113.7L76.4 102.3L78.1 101.3L85.1 112.7C85.5 113.4 85.6 114.1 85.3 114.8C85.1 115.3 84.7 115.6 84.2 115.7L80.3 116.4L77.9 119.6C77.7 119.6 77.2 119.9 76.7 119.9Z" fill="black"/>
<path d="M58.3 27.4H25.4V20.9H58.3V27.4ZM27.4 25.4H56.3V22.9H27.4V25.4Z" fill="black"/>
<path d="M66.3 37.3H16.4V39.1H66.3V37.3Z" fill="black"/>
<path d="M66.3 45.5H16.4V47.3H66.3V45.5Z" fill="black"/>
<path d="M66.3 53.6H16.4V55.4H66.3V53.6Z" fill="black"/>
<path d="M66.3 61.8H16.4V63.6H66.3V61.8Z" fill="black"/>
<path d="M43.6 70H16.4V71.8H43.6V70Z" fill="black"/>
<path d="M43.6 78.1H16.4V79.9H43.6V78.1Z" fill="black"/>
<path d="M43.6 86.3H16.4V88.1H43.6V86.3Z" fill="black"/>
</g>
<defs>
<clipPath id="clip0">
<rect width="85.5" height="119.9" fill="white"/>
</clipPath>
</defs>
</svg>
